# xmcd CD database file
#
# Track frame offsets:
#	150
#	669
#	18141
#	44476
#	72055
#	91453
#	129769
#	152681
#	189280
#	227762
#	269080
#
# Disc length: 4013 seconds
#
# Revision: 0
# Processed by: cddbd v1.5.1PL0 Copyright (c) Steve Scherf et al.
# Submitted via: CDex 1.51
#
DISCID=820fab0b
DTITLE=TNYFBB The not yet famous blues band - Live Famous
DYEAR=2004
DGENRE=Blues
TTITLE0=Blablablabla
TTITLE1=Ive been living in paradase
TTITLE2=Since the day you were home
TTITLE3=High is the mountain
TTITLE4=Tell me why/Mandacaru
TTITLE5=No
TTITLE6=Troble more
TTITLE7=My babies eyes
TTITLE8=Don't drag me down
TTITLE9=You were so blind
TTITLE10=Noite e dia
EXTD=YEAR: 2004
EXTT0=
EXTT1=
EXTT2=
EXTT3=
EXTT4=
EXTT5=
EXTT6=
EXTT7=
EXTT8=
EXTT9=
EXTT10=
PLAYORDER=
